# Hierarchical Translation and Rotation (.htr) file
# Generated by EVaRT
[Header]
FileType htr
DataType HTRS
FileVersion 1
NumSegments 23
NumFrames 4
DataFrameRate 120
EulerRotationOrder ZYX
CalibrationUnits mm
RotationUnits Degrees
GlobalAxisofGravity Y
BoneLengthAxis Y
ScaleFactor 1
[SegmentNames&Hierarchy]
#CHILD            PARENT
DaveRoot          GLOBAL
Spine1            DaveRoot
Spine2            Spine1
Spine3            Spine2
Spine4            Spine3
Neck              Spine4
Head              Neck
LClavicle         Spine4
LUpperArm         LClavicle
LLowerArm         LUpperArm
LHand             LLowerArm
RClavicle         Spine4
RUpperArm         RClavicle
RLowerArm         RUpperArm
RHand             RLowerArm
RUpperLeg         DaveRoot
RLowerLeg         RUpperLeg
RFoot             RLowerLeg
RToes             RFoot
LUpperLeg         DaveRoot
LLowerLeg         LUpperLeg
LFoot             LLowerLeg
LToes             LFoot
[BasePosition]
#SegmentName      Tx   Ty   Tz   Rx   Ry   Rz   BoneLength
DaveRoot          209.518790	1014.822220	-351.309218	15.931515	2.618173	-0.612188	100.000000
Spine1            0.000000	100.000000	0.000000	-16.793488	0.293500	-0.473802	100.000000
Spine2            0.000000	100.000000	0.000000	4.672625	0.349043	-0.357343	100.000000
Spine3            0.000000	100.000000	0.000000	10.998894	0.386292	-0.316706	100.000000
Spine4            0.000000	100.000000	0.000000	12.138707	1.462162	1.217268	100.000000
Neck              0.000000	100.000000	0.000000	12.810480	14.955418	1.620949	80.000000
Head              0.000000	80.000000	0.000000	-44.031424	-2.973179	-2.367844	200.000000
LClavicle         0.000000	100.000000	0.000000	-0.941684	-2.086145	-99.536471	200.000000
LUpperArm         0.000000	200.000000	0.000000	10.837043	12.737179	14.309854	300.000000
LLowerArm         0.000000	300.000000	0.000000	2.090205	2.175812	1.895763	200.000000
LHand             0.000000	200.000000	0.000000	-1.396534	-1.768569	8.793625	120.000000
RClavicle         0.000000	100.000000	0.000000	1.262055	-3.879913	108.124298	200.000000
RUpperArm         0.000000	200.000000	0.000000	10.866823	4.985308	-18.992585	300.000000
RLowerArm         0.000000	300.000000	0.000000	5.968673	-3.682026	-7.348670	200.000000
RHand             0.000000	200.000000	0.000000	-1.057110	-1.690862	-7.465634	120.000000
RUpperLeg         -115.911102	-10.000000	31.058285	24.909801	27.531946	-169.439912	530.000000
RLowerLeg         0.000000	530.000000	0.000000	-7.321572	0.479387	-2.520024	460.000000
RFoot             0.000000	460.000000	0.000000	82.352420	-1.863170	1.930421	130.000000
RToes             0.000000	130.000000	0.000000	17.737744	0.005479	-0.002881	100.000000
LUpperLeg         115.911102	-10.000000	31.058285	23.717246	9.590578	-171.144790	530.000000
LLowerLeg         0.000000	530.000000	0.000000	-5.150575	-3.275937	3.046484	460.000000
LFoot             0.000000	460.000000	0.000000	77.933010	-13.262104	9.769004	130.000000
LToes             0.000000	130.000000	0.000000	27.000770	-0.000000	-0.000086	100.000000
#Beginning of Data.
[DaveRoot]
#Fr	Tx	Ty	Tz	Rx	Ry	Rz	SF
1345	1011.683670	-15.683103	248.849946	-5.204643	3.572693	-1.250456	1.000000	
1346	1020.715311	-13.779140	243.664522	-4.396572	2.571985	-0.808977	1.000000	
1347	1029.577234	-10.738569	239.042188	-4.361863	1.652895	-0.233919	1.000000	
1348	1038.294933	-7.745464	234.584689	-3.248495	0.570696	0.182533	1.000000	
[Spine1]
#Fr	Tx	Ty	Tz	Rx	Ry	Rz	SF
1345	0.000000	0.000000	0.000000	2.304136	-0.311295	0.655365	1.000000	
1346	0.000000	0.000000	0.000000	1.592527	-0.048674	0.569270	1.000000	
1347	0.000000	0.000000	0.000000	2.526326	-0.291488	0.437494	1.000000	
1348	0.000000	0.000000	0.000000	1.527716	0.025376	0.349197	1.000000	
[Spine2]
#Fr	Tx	Ty	Tz	Rx	Ry	Rz	SF
1345	0.000000	0.000000	0.000000	2.304136	-0.311295	0.655365	1.000000	
1346	0.000000	0.000000	0.000000	1.592527	-0.048674	0.569270	1.000000	
1347	0.000000	0.000000	0.000000	2.526326	-0.291488	0.437494	1.000000	
1348	0.000000	0.000000	0.000000	1.527716	0.025376	0.349197	1.000000	
[Spine3]
#Fr	Tx	Ty	Tz	Rx	Ry	Rz	SF
1345	0.000000	0.000000	0.000000	2.304136	-0.311295	0.655365	1.000000	
1346	0.000000	0.000000	0.000000	1.592527	-0.048674	0.569270	1.000000	
1347	0.000000	0.000000	0.000000	2.526326	-0.291488	0.437494	1.000000	
1348	0.000000	0.000000	0.000000	1.527716	0.025376	0.349197	1.000000	
[Spine4]
#Fr	Tx	Ty	Tz	Rx	Ry	Rz	SF
1345	0.000000	0.000000	0.000000	2.304136	-0.311295	0.655365	1.000000	
1346	0.000000	0.000000	0.000000	1.592527	-0.048674	0.569270	1.000000	
1347	0.000000	0.000000	0.000000	2.526326	-0.291488	0.437494	1.000000	
1348	0.000000	0.000000	0.000000	1.527716	0.025376	0.349197	1.000000	
[Neck]
#Fr	Tx	Ty	Tz	Rx	Ry	Rz	SF
1345	0.000000	0.000000	0.000000	-2.944337	-5.865718	5.487707	1.000000	
1346	0.000000	0.000000	0.000000	-0.398562	-6.677534	6.196998	1.000000	
1347	0.000000	0.000000	0.000000	-3.975234	-6.269634	5.457428	1.000000	
1348	0.000000	0.000000	0.000000	-0.866907	-7.211184	6.319010	1.000000	
[Head]
#Fr	Tx	Ty	Tz	Rx	Ry	Rz	SF
1345	0.000000	0.000000	0.000000	-2.944337	-5.865718	5.487707	1.000000	
1346	0.000000	0.000000	0.000000	-0.398562	-6.677534	6.196998	1.000000	
1347	0.000000	0.000000	0.000000	-3.975234	-6.269634	5.457428	1.000000	
1348	0.000000	0.000000	0.000000	-0.866907	-7.211184	6.319010	1.000000	
[LClavicle]
#Fr	Tx	Ty	Tz	Rx	Ry	Rz	SF
1345	0.000000	0.000000	0.000000	10.506086	1.230749	-11.524501	1.000000	
1346	0.000000	0.000000	0.000000	17.818936	1.509797	-9.603965	1.000000	
1347	0.000000	0.000000	0.000000	7.321704	0.687772	-10.255045	1.000000	
1348	0.000000	0.000000	0.000000	17.361600	1.826497	-10.738831	1.000000	
[LUpperArm]
#Fr	Tx	Ty	Tz	Rx	Ry	Rz	SF
1345	0.000000	0.000000	0.000000	40.458308	24.811472	-33.020562	1.000000	
1346	0.000000	0.000000	0.000000	25.326148	18.327011	-44.385660	1.000000	
1347	0.000000	0.000000	0.000000	55.651676	30.341388	-21.789611	1.000000	
1348	0.000000	0.000000	0.000000	30.608842	25.768074	-37.777857	1.000000	
[LLowerArm]
#Fr	Tx	Ty	Tz	Rx	Ry	Rz	SF
1345	0.000000	0.000000	0.000000	-3.150832	-0.000000	0.000000	1.000000	
1346	0.000000	0.000000	0.000000	13.961152	-0.000000	0.000000	1.000000	
1347	0.000000	0.000000	0.000000	-19.997371	-0.000000	0.000000	1.000000	
1348	0.000000	0.000000	0.000000	4.194012	-0.000000	0.000000	1.000000	
[LHand]
#Fr	Tx	Ty	Tz	Rx	Ry	Rz	SF
1345	0.000000	0.000000	0.000000	9.992223	0.000000	-0.000000	1.000000	
1346	0.000000	0.000000	0.000000	-1.032225	0.000000	-0.000000	1.000000	
1347	0.000000	0.000000	0.000000	22.900785	0.000000	-0.000000	1.000000	
1348	0.000000	0.000000	0.000000	6.690206	0.000000	-0.000000	1.000000	
[RClavicle]
#Fr	Tx	Ty	Tz	Rx	Ry	Rz	SF
1345	0.000000	0.000000	0.000000	2.265893	-0.160501	3.724322	1.000000	
1346	0.000000	0.000000	0.000000	4.636117	-0.245869	2.703868	1.000000	
1347	0.000000	0.000000	0.000000	1.693227	-0.127233	3.970774	1.000000	
1348	0.000000	0.000000	0.000000	4.579215	-0.301221	3.430234	1.000000	
[RUpperArm]
#Fr	Tx	Ty	Tz	Rx	Ry	Rz	SF
1345	0.000000	0.000000	0.000000	33.184697	-14.564895	47.196662	1.000000	
1346	0.000000	0.000000	0.000000	26.992695	-12.828813	51.722231	1.000000	
1347	0.000000	0.000000	0.000000	35.085303	-15.885611	45.603852	1.000000	
1348	0.000000	0.000000	0.000000	27.289192	-14.679891	50.329789	1.000000	
[RLowerArm]
#Fr	Tx	Ty	Tz	Rx	Ry	Rz	SF
1345	0.000000	0.000000	0.000000	21.696947	-0.000000	-0.000000	1.000000	
1346	0.000000	0.000000	0.000000	24.232058	-0.000000	-0.000000	1.000000	
1347	0.000000	0.000000	0.000000	19.468484	-0.000000	-0.000000	1.000000	
1348	0.000000	0.000000	0.000000	22.188936	-0.000000	-0.000000	1.000000	
[RHand]
#Fr	Tx	Ty	Tz	Rx	Ry	Rz	SF
1345	0.000000	0.000000	0.000000	8.749824	-9.538988	-7.824597	1.000000	
1346	0.000000	0.000000	0.000000	6.550916	-10.335300	-7.209140	1.000000	
1347	0.000000	0.000000	0.000000	8.539131	-7.525129	-7.693459	1.000000	
1348	0.000000	0.000000	0.000000	6.572746	-8.258910	-6.881987	1.000000	
[RUpperLeg]
#Fr	Tx	Ty	Tz	Rx	Ry	Rz	SF
1345	0.000000	0.000000	0.000000	21.173032	-48.347351	-17.630947	1.000000	
1346	0.000000	0.000000	0.000000	21.414189	-45.581460	-17.079201	1.000000	
1347	0.000000	0.000000	0.000000	20.522614	-42.724889	-16.186645	1.000000	
1348	0.000000	0.000000	0.000000	20.770172	-39.246386	-15.134486	1.000000	
[RLowerLeg]
#Fr	Tx	Ty	Tz	Rx	Ry	Rz	SF
1345	0.000000	0.000000	0.000000	-11.690217	0.000000	-0.000000	1.000000	
1346	0.000000	0.000000	0.000000	-11.371513	0.000000	-0.000000	1.000000	
1347	0.000000	0.000000	0.000000	-10.881167	-0.000000	-0.000000	1.000000	
1348	0.000000	0.000000	0.000000	-10.582354	0.000000	-0.000000	1.000000	
[RFoot]
#Fr	Tx	Ty	Tz	Rx	Ry	Rz	SF
1345	0.000000	0.000000	0.000000	-3.152714	2.232751	12.168765	1.000000	
1346	0.000000	0.000000	0.000000	-4.048008	1.727431	10.403221	1.000000	
1347	0.000000	0.000000	0.000000	-4.768584	0.801461	8.175995	1.000000	
1348	0.000000	0.000000	0.000000	-4.685392	0.152637	5.861633	1.000000	
[RToes]
#Fr	Tx	Ty	Tz	Rx	Ry	Rz	SF
1345	0.000000	0.000000	0.000000	3.083629	0.000000	0.000000	1.000000	
1346	0.000000	0.000000	0.000000	3.305658	0.000000	0.000000	1.000000	
1347	0.000000	0.000000	0.000000	3.523059	0.000000	0.000000	1.000000	
1348	0.000000	0.000000	0.000000	2.710480	0.000000	0.000000	1.000000	
[LUpperLeg]
#Fr	Tx	Ty	Tz	Rx	Ry	Rz	SF
1345	0.000000	0.000000	0.000000	6.865599	11.449743	3.076122	1.000000	
1346	0.000000	0.000000	0.000000	7.490189	9.830423	2.981155	1.000000	
1347	0.000000	0.000000	0.000000	7.058022	8.718730	2.378289	1.000000	
1348	0.000000	0.000000	0.000000	7.786614	7.359084	2.366656	1.000000	
[LLowerLeg]
#Fr	Tx	Ty	Tz	Rx	Ry	Rz	SF
1345	0.000000	0.000000	0.000000	-24.767488	0.000000	0.000000	1.000000	
1346	0.000000	0.000000	0.000000	-24.299465	0.000000	0.000000	1.000000	
1347	0.000000	0.000000	0.000000	-23.215338	0.000000	0.000000	1.000000	
1348	0.000000	0.000000	0.000000	-22.379457	-0.000000	-0.000000	1.000000	
[LFoot]
#Fr	Tx	Ty	Tz	Rx	Ry	Rz	SF
1345	0.000000	0.000000	0.000000	20.806686	-4.900048	-26.089973	1.000000	
1346	0.000000	0.000000	0.000000	20.363082	-4.933932	-26.470481	1.000000	
1347	0.000000	0.000000	0.000000	19.600509	-5.441216	-26.625352	1.000000	
1348	0.000000	0.000000	0.000000	18.885481	-5.472226	-26.609126	1.000000	
[LToes]
#Fr	Tx	Ty	Tz	Rx	Ry	Rz	SF
1345	0.000000	0.000000	0.000000	-5.886049	-0.000000	-0.000000	1.000000	
1346	0.000000	0.000000	0.000000	-6.017975	-0.000000	-0.000000	1.000000	
1347	0.000000	0.000000	0.000000	-6.444900	-0.000000	-0.000000	1.000000	
1348	0.000000	0.000000	0.000000	-6.509039	-0.000000	-0.000000	1.000000	
